# xmcd
# Copyright (C) 1995-1998 Ti Kan
#
# Track frame offsets:
#       182
#       19877
#       41247
#       71310
#       87962
#       99982
#       129937
#       149347
#       173890
#       191635
#       205585
#
# Disc length: 2944 seconds
#
# Revision: 0
# Processed by: cddbd v1.5.2PL0 Copyright (c) Steve Scherf et al.
# Submitted via: CD-Import v1.0
#
DISCID=920b7e0b
DTITLE=James - Seven
DYEAR=1992
DGENRE=
TTITLE0=Born Of Frustration
TTITLE1=Ring The Bells
TTITLE2=Sound
TTITLE3=Bring A Gun
TTITLE4=Mother
TTITLE5=Don't Wait That Long
TTITLE6=Live A Love Of Life
TTITLE7=Next Lover
TTITLE8=Heavens
TTITLE9=Protect Me
TTITLE10=Seven
EXTD=
EXTT0=
EXTT1=
EXTT2=
EXTT3=
EXTT4=
EXTT5=
EXTT6=
EXTT7=
EXTT8=
EXTT9=
EXTT10=
PLAYORDER=
